Coordinates
version=1
nRows=5
nColumns=40
inDegrees=yes

Units are S.I. units (second, meters, Newtons, ...)
Angles are in degrees.

endheader
time	pelvis_tilt	pelvis_list	pelvis_rotation	pelvis_tx	pelvis_ty	pelvis_tz	hip_flexion_r	hip_adduction_r	hip_rotation_r	knee_angle_r	knee_angle_r_beta	ankle_angle_r	subtalar_angle_r	mtp_angle_r	hip_flexion_l	hip_adduction_l	hip_rotation_l	knee_angle_l	knee_angle_l_beta	ankle_angle_l	subtalar_angle_l	mtp_angle_l	lumbar_extension	lumbar_bending	lumbar_rotation	arm_flex_r	arm_add_r	arm_rot_r	elbow_flex_r	pro_sup_r	wrist_flex_r	wrist_dev_r	arm_flex_l	arm_add_l	arm_rot_l	elbow_flex_l	pro_sup_l	wrist_flex_l	wrist_dev_l
      0.67000000	     -1.46466478	     -0.94026483	      5.00458509	     -0.57464183	      0.95830109	      1.53721223	      8.21767050	      0.94755637	    -21.77187166	    -15.89225700	     -0.27737221	      4.79847721	     -3.62836908	     -3.20370908	     17.53230163	      8.54697867	     13.10412071	    -50.35085554	     -0.87878821	      7.48323459	     15.87976819	      8.54473698	     -3.02656795	      0.07211953	      2.08794968	      1.95734976	    -11.07400330	    -20.78492708	     18.25600137	     89.95437384	      0.00000000	      0.00000000	     -8.66758552	     10.35674475	      1.22504685	     13.21372389	     89.95437384	      0.00000000	      0.00000000
      0.68000000	     -1.25213317	     -0.22463090	      4.43422925	     -0.56773100	      0.95946518	      1.53877771	      7.34506956	      0.35505241	    -21.36325294	    -15.63149340	     -0.27282103	      5.16271834	     -2.81348458	     -3.76914160	     17.64694146	      7.71989596	     13.96267485	    -48.43133145	     -0.84528620	      7.40535689	     15.70340466	      8.59180278	     -3.44664301	     -0.76063283	      2.75603175	      2.31389744	    -11.19018857	    -19.68256242	     18.88442352	     89.95437384	      0.00000000	      0.00000000	     -8.85253262	     10.31566418	      2.76280927	     13.04487301	     89.95437384	      0.00000000	      0.00000000
      0.69000000	     -1.27707029	      0.22524270	      4.12612537	     -0.56120821	      0.95995888	      1.54003602	      6.77458761	     -0.00322575	    -21.38091860	    -15.36258631	     -0.26812771	      5.39815470	     -2.33223760	     -4.44118799	     18.23994124	      7.15632334	     14.56434222	    -46.67450498	     -0.81462379	      7.43603095	     15.48376667	      8.61496980	     -3.57405262	     -1.31825242	      3.19732306	      2.73356827	    -11.35500412	    -18.66130117	     19.34736310	     89.95437384	      0.00000000	      0.00000000	     -9.03055014	     10.31194980	      4.08876281	     12.89927316	     89.95437384	      0.00000000	      0.00000000
      0.70000000	     -1.38459903	      0.65059321	      3.74908013	     -0.55470130	      0.96017707	      1.54132239	      6.33558825	     -0.31784776	    -21.11042913	    -15.11357693	     -0.26378168	      5.69423270	     -2.03199354	     -4.85068461	     18.85750472	      6.60658811	     15.14105054	    -44.74728319	     -0.78098742	      7.36713506	     15.22957285	      8.56471444	     -3.58177074	     -1.85650210	      3.78182540	      3.13552588	    -11.48530920	    -18.06454473	     19.77099681	     89.95437384	      0.00000000	      0.00000000	     -9.17992984	     10.33115200	      5.06576888	     12.82244469	     89.95437384	      0.00000000	      0.00000000
      0.71000000	     -1.52190332	      0.95888484	      3.47473684	     -0.54822135	      0.96019211	      1.54234005	      5.98741747	     -0.53868541	    -20.93253364	    -14.98841868	     -0.26159726	      6.07364694	     -1.97471126	     -5.13012680	     19.53224005	      6.16982869	     15.60598693	    -42.75550737	     -0.74622438	      7.14120580	     14.79993605	      8.50455774	     -3.54859857	     -2.24206435	      4.18851792	      3.54745394	    -11.63677412	    -17.39272003	     20.25397542	     89.95437384	      0.00000000	      0.00000000	     -9.44341921	     10.35993669	      5.68444821	     12.81822579	     89.95437384	      0.00000000	      0.00000000
